<svg width="27" height="27" viewBox="0 0 27 27" fill="none" xmlns="http://www.w3.org/2000/svg">
<rect x="0.466675" width="26.525" height="26.525" rx="4.42083" fill="#FF5400"/>
<g clip-path="url(#clip0_42_1633)">
<path d="M12.6628 12.6668C12.6628 12.6668 13.7085 12.5902 13.7085 11.3798C13.7085 10.1693 12.853 9.57861 11.7693 9.57861H8.20328V16.3428H11.7693C11.7693 16.3428 13.9463 16.4107 13.9463 14.3463C13.9463 14.3463 14.0412 12.6668 12.6628 12.6668ZM11.5126 10.7809H11.7693C11.7693 10.7809 12.254 10.7809 12.254 11.4847C12.254 12.1884 11.969 12.2904 11.6456 12.2904H9.77452V10.7809H11.5126ZM11.6685 15.1406H9.77452V13.3329H11.7693C11.7693 13.3329 12.4918 13.3236 12.4918 14.2619C12.4918 15.0531 11.9522 15.1346 11.6685 15.1406ZM16.8496 11.2996C14.2142 11.2996 14.2165 13.8986 14.2165 13.8986C14.2165 13.8986 14.0357 16.4843 16.8496 16.4843C16.8496 16.4843 19.1945 16.6165 19.1945 14.6856H17.9885C17.9885 14.6856 18.0287 15.4127 16.8898 15.4127C16.8898 15.4127 15.6837 15.4925 15.6837 14.2359H19.2347C19.2347 14.2359 19.6232 11.2996 16.8496 11.2996ZM15.6704 13.3329C15.6704 13.3329 15.8177 12.2904 16.8764 12.2904C17.9349 12.2904 17.9216 13.3329 17.9216 13.3329H15.6704ZM18.2025 10.8101H15.3752V9.97711H18.2025V10.8101Z" fill="white" fill-opacity="0.5"/>
</g>
<defs>
<clipPath id="clip0_42_1633">
<rect width="11.0521" height="11.0521" fill="white" transform="translate(8.20312 7.73633)"/>
</clipPath>
</defs>
</svg>
