<svg width="10" height="12" viewBox="0 0 10 12" fill="none" xmlns="http://www.w3.org/2000/svg">
<mask id="path-1-inside-1_0_1146" fill="white">
<path d="M1.15594 9.0336C0.650877 8.10423 0.410882 7.01789 0.469246 5.92528C0.52761 4.83266 0.88144 3.78793 1.48166 2.93599C2.08187 2.08405 2.89872 1.46714 3.8189 1.17082C4.73908 0.874508 5.71697 0.91348 6.61693 1.28233C7.5169 1.65119 8.29432 2.33164 8.84137 3.2293C9.38842 4.12696 9.67798 5.19733 9.66988 6.29195C9.66178 7.38657 9.35642 8.45117 8.79616 9.33809C8.2359 10.225 7.44852 10.8903 6.54322 11.2416L6.27963 10.3508C7.02346 10.0621 7.67041 9.51554 8.13074 8.78681C8.59107 8.05809 8.84197 7.18337 8.84862 6.28398C8.85528 5.3846 8.61737 4.50513 8.16789 3.76757C7.71841 3.03002 7.07965 2.47093 6.3402 2.16787C5.60075 1.8648 4.79727 1.83278 4.04121 2.07624C3.28516 2.31971 2.614 2.82659 2.12083 3.52658C1.62767 4.22657 1.33695 5.08496 1.289 5.9827C1.24104 6.88044 1.43823 7.77302 1.85321 8.53663L1.15594 9.0336Z"/>
</mask>
<path d="M1.15594 9.0336C0.650877 8.10423 0.410882 7.01789 0.469246 5.92528C0.52761 4.83266 0.88144 3.78793 1.48166 2.93599C2.08187 2.08405 2.89872 1.46714 3.8189 1.17082C4.73908 0.874508 5.71697 0.91348 6.61693 1.28233C7.5169 1.65119 8.29432 2.33164 8.84137 3.2293C9.38842 4.12696 9.67798 5.19733 9.66988 6.29195C9.66178 7.38657 9.35642 8.45117 8.79616 9.33809C8.2359 10.225 7.44852 10.8903 6.54322 11.2416L6.27963 10.3508C7.02346 10.0621 7.67041 9.51554 8.13074 8.78681C8.59107 8.05809 8.84197 7.18337 8.84862 6.28398C8.85528 5.3846 8.61737 4.50513 8.16789 3.76757C7.71841 3.03002 7.07965 2.47093 6.3402 2.16787C5.60075 1.8648 4.79727 1.83278 4.04121 2.07624C3.28516 2.31971 2.614 2.82659 2.12083 3.52658C1.62767 4.22657 1.33695 5.08496 1.289 5.9827C1.24104 6.88044 1.43823 7.77302 1.85321 8.53663L1.15594 9.0336Z" fill="#F3EFEE" stroke="#DBD1ED" stroke-width="3.0698" mask="url(#path-1-inside-1_0_1146)"/>
</svg>
