<svg width="27" height="27" viewBox="0 0 27 27" fill="none" xmlns="http://www.w3.org/2000/svg">
<rect x="0.0999756" width="26.525" height="26.525" rx="4.42083" fill="#FF5400"/>
<g clip-path="url(#clip0_42_1632)">
<path d="M11.5208 13.2624C11.5208 12.2451 12.3452 11.4202 13.3625 11.4202C14.3797 11.4202 15.2046 12.2451 15.2046 13.2624C15.2046 14.2796 14.3797 15.1045 13.3625 15.1045C12.3452 15.1045 11.5208 14.2796 11.5208 13.2624ZM10.5249 13.2624C10.5249 14.8296 11.7953 16.0999 13.3625 16.0999C14.9297 16.0999 16.2 14.8296 16.2 13.2624C16.2 11.6952 14.9297 10.4248 13.3625 10.4248C11.7953 10.4248 10.5249 11.6952 10.5249 13.2624ZM15.6492 10.3123C15.6492 10.6783 15.9461 10.9756 16.3125 10.9756C16.6785 10.9756 16.9758 10.6783 16.9758 10.3123C16.9758 9.9463 16.679 9.64946 16.3125 9.64946C15.9461 9.64946 15.6492 9.9463 15.6492 10.3123ZM11.1297 17.7604C10.591 17.7359 10.2981 17.6462 10.1035 17.5703C9.84553 17.4698 9.66163 17.3502 9.4679 17.1569C9.27463 16.9637 9.15455 16.7798 9.05457 16.5218C8.97868 16.3271 8.88896 16.0343 8.86441 15.4956C8.83763 14.913 8.83227 14.7381 8.83227 13.2624C8.83227 11.7867 8.83808 11.6121 8.86441 11.0292C8.88896 10.4904 8.97913 10.1981 9.05457 10.003C9.155 9.74499 9.27463 9.56108 9.4679 9.36736C9.66118 9.17408 9.84508 9.05401 10.1035 8.95402C10.2981 8.87814 10.591 8.78842 11.1297 8.76387C11.7122 8.73709 11.8872 8.73173 13.3625 8.73173C14.8382 8.73173 15.0127 8.73753 15.5957 8.76387C16.1344 8.78842 16.4268 8.87859 16.6219 8.95402C16.8799 9.05401 17.0638 9.17408 17.2575 9.36736C17.4508 9.56064 17.5704 9.74499 17.6708 10.003C17.7467 10.1976 17.8364 10.4904 17.861 11.0292C17.8878 11.6121 17.8931 11.7867 17.8931 13.2624C17.8931 14.7376 17.8878 14.9126 17.861 15.4956C17.8364 16.0343 17.7463 16.3271 17.6708 16.5218C17.5704 16.7798 17.4508 16.9637 17.2575 17.1569C17.0642 17.3502 16.8799 17.4698 16.6219 17.5703C16.4272 17.6462 16.1344 17.7359 15.5957 17.7604C15.0131 17.7872 14.8382 17.7926 13.3625 17.7926C11.8872 17.7926 11.7122 17.7872 11.1297 17.7604ZM11.0842 7.76981C10.4959 7.79659 10.0942 7.88988 9.74287 8.02647C9.37952 8.16752 9.07153 8.35678 8.76398 8.66388C8.45688 8.97098 8.26762 9.27898 8.12657 9.64277C7.98998 9.99406 7.89669 10.3958 7.8699 10.9841C7.84267 11.5733 7.83643 11.7617 7.83643 13.2624C7.83643 14.7631 7.84267 14.9514 7.8699 15.5406C7.89669 16.1289 7.98998 16.5307 8.12657 16.882C8.26762 17.2453 8.45643 17.5538 8.76398 17.8609C9.07108 18.168 9.37908 18.3568 9.74287 18.4983C10.0946 18.6349 10.4959 18.7282 11.0842 18.7549C11.6739 18.7817 11.8618 18.7884 13.3625 18.7884C14.8636 18.7884 15.0515 18.7822 15.6407 18.7549C16.229 18.7282 16.6308 18.6349 16.9821 18.4983C17.3454 18.3568 17.6534 18.168 17.961 17.8609C18.2681 17.5538 18.4569 17.2453 18.5984 16.882C18.735 16.5307 18.8287 16.1289 18.855 15.5406C18.8818 14.951 18.8881 14.7631 18.8881 13.2624C18.8881 11.7617 18.8818 11.5733 18.855 10.9841C18.8283 10.3958 18.735 9.99406 18.5984 9.64277C18.4569 9.27942 18.2681 8.97143 17.961 8.66388C17.6539 8.35678 17.3454 8.16752 16.9825 8.02647C16.6308 7.88988 16.229 7.79614 15.6412 7.76981C15.052 7.74302 14.8636 7.73633 13.3629 7.73633C11.8618 7.73633 11.6739 7.74258 11.0842 7.76981Z" fill="white" fill-opacity="0.5"/>
</g>
<defs>
<clipPath id="clip0_42_1632">
<rect width="11.0521" height="11.0521" fill="white" transform="translate(7.83643 7.73633)"/>
</clipPath>
</defs>
</svg>
