<svg width="22" height="22" viewBox="0 0 22 22" fill="none" xmlns="http://www.w3.org/2000/svg">
<path d="M7.55072 19.2725H14.1129" stroke="black" stroke-width="0.828906" stroke-linecap="round" stroke-linejoin="round"/>
<path d="M6.78787 13.9407C6.00663 13.3333 5.3739 12.556 4.9376 11.6677C4.5013 10.7795 4.27287 9.80362 4.26963 8.81402C4.25323 5.25404 7.11598 2.29286 10.676 2.21083C12.0537 2.17817 13.4068 2.58012 14.5433 3.35967C15.6798 4.13923 16.5421 5.25682 17.0077 6.55394C17.4734 7.85105 17.5188 9.26186 17.1376 10.5863C16.7564 11.9107 15.9679 13.0814 14.884 13.9325C14.6445 14.1176 14.4505 14.355 14.3169 14.6265C14.1833 14.8981 14.1135 15.1966 14.1129 15.4992V15.9914C14.1129 16.1654 14.0438 16.3324 13.9207 16.4554C13.7976 16.5785 13.6307 16.6476 13.4567 16.6476H8.20694C8.0329 16.6476 7.86599 16.5785 7.74292 16.4554C7.61986 16.3324 7.55072 16.1654 7.55072 15.9914V15.4992C7.54867 15.1989 7.47903 14.9028 7.34697 14.633C7.21491 14.3632 7.02382 14.1266 6.78787 13.9407V13.9407Z" stroke="black" stroke-width="0.828906" stroke-linecap="round" stroke-linejoin="round"/>
<path d="M11.4962 4.90137C12.2983 5.03733 13.0383 5.41888 13.6143 5.99336C14.1902 6.56785 14.5737 7.30694 14.7117 8.10863" stroke="black" stroke-width="0.828906" stroke-linecap="round" stroke-linejoin="round"/>
</svg>
