<svg width="28" height="27" viewBox="0 0 28 27" fill="none" xmlns="http://www.w3.org/2000/svg">
<rect x="0.733276" width="26.525" height="26.525" rx="4.42083" fill="#FF5400"/>
<g clip-path="url(#clip0_42_1631)">
<path d="M8.46973 9.02015C8.46973 8.64802 8.59419 8.34102 8.84311 8.09915C9.09203 7.85726 9.41563 7.73633 9.8139 7.73633C10.2051 7.73633 10.5215 7.8554 10.7634 8.09357C11.0123 8.33917 11.1367 8.65919 11.1367 9.05365C11.1367 9.41088 11.0158 9.70857 10.774 9.94674C10.5251 10.1923 10.1979 10.3151 9.79256 10.3151H9.78189C9.39073 10.3151 9.07425 10.1923 8.83244 9.94674C8.59063 9.70114 8.46973 9.39227 8.46973 9.02015ZM8.60841 18.7884V11.331H10.9767V18.7884H8.60841ZM12.2889 18.7884H14.6572V14.6243C14.6572 14.3638 14.6856 14.1629 14.7425 14.0215C14.8421 13.7684 14.9932 13.5545 15.1959 13.3796C15.3986 13.2047 15.6529 13.1172 15.9587 13.1172C16.7552 13.1172 17.1535 13.6791 17.1535 14.803V18.7884H19.5218V14.5127C19.5218 13.4112 19.2729 12.5758 18.775 12.0064C18.2772 11.4371 17.6193 11.1524 16.8015 11.1524C15.884 11.1524 15.1693 11.5655 14.6572 12.3916V12.4139H14.6465L14.6572 12.3916V11.331H12.2889C12.3031 11.5692 12.3102 12.3097 12.3102 13.5526C12.3102 14.7955 12.3031 16.5408 12.2889 18.7884Z" fill="white" fill-opacity="0.5"/>
</g>
<defs>
<clipPath id="clip0_42_1631">
<rect width="11.0521" height="11.0521" fill="white" transform="translate(8.46973 7.73633)"/>
</clipPath>
</defs>
</svg>
