<svg width="17" height="17" viewBox="0 0 17 17" fill="none" xmlns="http://www.w3.org/2000/svg">
<path d="M13.292 6.22083H3.29408C3.018 6.22083 2.79419 6.44464 2.79419 6.72072V13.7192C2.79419 13.9953 3.018 14.2191 3.29408 14.2191H13.292C13.5681 14.2191 13.7919 13.9953 13.7919 13.7192V6.72072C13.7919 6.44464 13.5681 6.22083 13.292 6.22083Z" stroke="#6D737A" stroke-width="0.99979" stroke-linecap="round" stroke-linejoin="round"/>
<path d="M6.04352 6.22073V3.97121C6.04352 3.3746 6.28052 2.80242 6.70239 2.38055C7.12426 1.95868 7.69643 1.72168 8.29305 1.72168C8.88966 1.72168 9.46183 1.95868 9.8837 2.38055C10.3056 2.80242 10.5426 3.3746 10.5426 3.97121V6.22073" stroke="#6D737A" stroke-width="0.99979" stroke-linecap="round" stroke-linejoin="round"/>
<path d="M8.29306 10.9698C8.70718 10.9698 9.0429 10.6341 9.0429 10.2199C9.0429 9.80581 8.70718 9.47009 8.29306 9.47009C7.87893 9.47009 7.54321 9.80581 7.54321 10.2199C7.54321 10.6341 7.87893 10.9698 8.29306 10.9698Z" fill="#6D737A"/>
</svg>
