<svg width="27" height="27" viewBox="0 0 27 27" fill="none" xmlns="http://www.w3.org/2000/svg">
<rect x="0.366699" width="26.525" height="26.525" rx="4.42083" fill="#FF5400"/>
<g clip-path="url(#clip0_42_1630)">
<path d="M8.10315 13.2624C8.10315 12.2603 8.34999 11.3356 8.84364 10.4883C9.3373 9.64097 10.0078 8.97048 10.8551 8.47682C11.7024 7.98315 12.6271 7.73633 13.6292 7.73633C14.6313 7.73633 15.5559 7.98315 16.4033 8.47682C17.2506 8.97048 17.9211 9.64097 18.4147 10.4883C18.9084 11.3356 19.1552 12.2603 19.1552 13.2624C19.1552 14.2644 18.9084 15.1891 18.4147 16.0364C17.9211 16.8838 17.2506 17.5543 16.4033 18.0479C15.5559 18.5416 14.6313 18.7884 13.6292 18.7884C12.6271 18.7884 11.7024 18.5416 10.8551 18.0479C10.0078 17.5543 9.3373 16.8838 8.84364 16.0364C8.34999 15.1891 8.10315 14.2644 8.10315 13.2624ZM9.02047 13.2624C9.02047 14.4118 9.4073 15.4249 10.1809 16.3017C10.5346 15.6091 11.0946 14.9497 11.8609 14.3234C12.6271 13.6971 13.375 13.3029 14.1044 13.1408C13.9939 12.8829 13.8871 12.6508 13.7839 12.4445C12.5166 12.8498 11.1462 13.0524 9.67255 13.0524C9.38519 13.0524 9.17152 13.0487 9.03152 13.0413C9.03152 13.0708 9.02969 13.1076 9.026 13.1518C9.02232 13.1961 9.02047 13.2329 9.02047 13.2624ZM9.16415 12.124C9.32625 12.1387 9.56572 12.1461 9.88254 12.1461C11.113 12.1461 12.2808 11.9803 13.386 11.6488C12.8261 10.6541 12.2108 9.82517 11.5403 9.16205C10.9583 9.45677 10.4591 9.8657 10.0428 10.3888C9.6265 10.912 9.33362 11.4904 9.16415 12.124ZM10.8109 16.8985C11.6435 17.5469 12.5829 17.8711 13.6292 17.8711C14.1744 17.8711 14.716 17.7679 15.2538 17.5616C15.1065 16.3017 14.8191 15.0823 14.3918 13.9034C13.7139 14.0507 13.0305 14.4228 12.3416 15.0197C11.6527 15.6165 11.1425 16.2428 10.8109 16.8985ZM12.5019 8.80838C13.1503 9.47888 13.7508 10.3151 14.3034 11.3172C15.3054 10.8972 16.0607 10.363 16.569 9.71465C15.7144 9.00732 14.7344 8.65365 13.6292 8.65365C13.2534 8.65365 12.8777 8.70523 12.5019 8.80838ZM14.7012 12.1019C14.8118 12.3377 14.937 12.6361 15.077 12.9971C15.6223 12.9455 16.2154 12.9198 16.8564 12.9198C17.3132 12.9198 17.7664 12.9308 18.2158 12.9529C18.1569 11.9509 17.7958 11.0593 17.1327 10.2783C16.6538 10.993 15.8433 11.6009 14.7012 12.1019ZM15.3533 13.7708C15.7291 14.8612 15.9833 15.9812 16.1159 17.1306C16.698 16.7548 17.1732 16.2722 17.5416 15.6828C17.91 15.0933 18.1311 14.456 18.2048 13.7708C17.6669 13.7339 17.1769 13.7155 16.7348 13.7155C16.3296 13.7155 15.8691 13.7339 15.3533 13.7708Z" fill="white" fill-opacity="0.5"/>
</g>
<defs>
<clipPath id="clip0_42_1630">
<rect width="11.0521" height="11.0521" fill="white" transform="translate(8.10315 7.73633)"/>
</clipPath>
</defs>
</svg>
