<svg width="227" height="457" viewBox="0 0 227 457" fill="none" xmlns="http://www.w3.org/2000/svg">
<rect x="3" width="220.91" height="457" rx="38.2142" fill="black"/>
<rect x="5.6174" y="3.14111" width="215.675" height="450.718" rx="37.1672" fill="white"/>
<path d="M221.816 147.646C221.816 146.068 223.336 144.936 224.847 145.389C225.844 145.688 226.527 146.605 226.527 147.646V198.899C226.527 199.94 225.844 200.857 224.847 201.156C223.336 201.609 221.816 200.477 221.816 198.899V147.646Z" fill="black"/>
<path d="M5.6174 167.752C5.6174 166.271 4.26801 165.158 2.81453 165.439C1.70648 165.653 0.906061 166.623 0.906061 167.752V199.209C0.906061 200.338 1.70648 201.308 2.81453 201.522C4.26801 201.803 5.6174 200.69 5.6174 199.209V167.752Z" fill="black"/>
<path d="M5.6174 123.256C5.6174 121.775 4.26801 120.662 2.81453 120.943C1.70648 121.157 0.906061 122.127 0.906061 123.256V154.713C0.906061 155.842 1.70648 156.812 2.81453 157.026C4.26801 157.307 5.6174 156.194 5.6174 154.713V123.256Z" fill="black"/>
<path d="M5.6174 90.5357C5.6174 89.1464 4.42125 88.0588 3.03821 88.1907C1.82928 88.3059 0.906061 89.3213 0.906061 90.5357V103.676C0.906061 104.89 1.82928 105.906 3.03821 106.021C4.42125 106.153 5.6174 105.065 5.6174 103.676V90.5357Z" fill="black"/>
<path d="M92.2014 3.76938C91.6837 3.07919 92.1762 2.09424 93.0389 2.09424H134.599C135.421 2.09424 135.923 2.99876 135.487 3.69609L134.178 5.79002C133.987 6.09613 133.651 6.2821 133.29 6.2821H94.6094C94.2798 6.2821 93.9695 6.12694 93.7718 5.86331L92.2014 3.76938Z" fill="black"/>
</svg>
